<svg width="800" height="578" viewBox="0 0 800 578" fill="none" xmlns="http://www.w3.org/2000/svg">
<g clip-path="url(#clip0_0_1)">
<path d="M711.111 0.111115H88.8889C65.3141 0.111115 42.7049 9.47616 26.035 26.1461C9.36505 42.816 0 65.4252 0 89L0 489C0 512.575 9.36505 535.184 26.035 551.854C42.7049 568.524 65.3141 577.889 88.8889 577.889H711.111C734.686 577.889 757.295 568.524 773.965 551.854C790.635 535.184 800 512.575 800 489V89C800 65.4252 790.635 42.816 773.965 26.1461C757.295 9.47616 734.686 0.111115 711.111 0.111115Z" fill="#EEEEEE"/>
<path d="M466.667 0.111115H333.333V222.333H0V355.667H333.333V577.889H466.667V355.667H800V222.333H466.667V0.111115Z" fill="#CE1124"/>
</g>
<defs>
<clipPath id="clip0_0_1">
<rect width="800" height="800" fill="white" transform="translate(0 -111)"/>
</clipPath>
</defs>
</svg>
