<svg width="800" height="578" viewBox="0 0 800 578" fill="none" xmlns="http://www.w3.org/2000/svg">
<path d="M800 489C800 512.575 790.635 535.184 773.965 551.854C757.295 568.524 734.686 577.889 711.111 577.889H533.333V0.111115H711.111C734.686 0.111115 757.295 9.47616 773.965 26.1461C790.635 42.816 800 65.4252 800 89V489Z" fill="#ED2939"/>
<path d="M88.8889 0.111115C65.3141 0.111115 42.7049 9.47616 26.035 26.1461C9.36505 42.816 0 65.4252 0 89L0 489C0 512.575 9.36505 535.184 26.035 551.854C42.7049 568.524 65.3141 577.889 88.8889 577.889H266.667V0.111115H88.8889Z" fill="#002495"/>
<path d="M266.667 0.111115H533.333V577.889H266.667V0.111115Z" fill="#EEEEEE"/>
</svg>
